<mxfile host="app.diagrams.net" modified="2023-12-12T18:42:32.700Z" agent="Mozilla/5.0 (X11; Linux x86_64) AppleWebKit/537.36 (KHTML, like Gecko) Chrome/118.0.0.0 Safari/537.36" etag="rw16B7ia43V4wNFCKet9" version="22.1.8" type="device">
  <diagram name="Page-1" id="42789a77-a242-8287-6e28-9cd8cfd52e62">
    <mxGraphModel dx="920" dy="761" grid="1" gridSize="10" guides="1" tooltips="1" connect="1" arrows="1" fold="1" page="1" pageScale="1" pageWidth="1100" pageHeight="850" background="none" math="0" shadow="0">
      <root>
        <mxCell id="0" />
        <mxCell id="1" parent="0" />
        <mxCell id="GMt-ye5gc53pS2L6aItx-1" style="edgeStyle=orthogonalEdgeStyle;rounded=0;orthogonalLoop=1;jettySize=auto;html=1;" edge="1" parent="1" source="1ea317790d2ca983-1">
          <mxGeometry relative="1" as="geometry">
            <mxPoint x="495" y="210" as="targetPoint" />
          </mxGeometry>
        </mxCell>
        <mxCell id="1ea317790d2ca983-1" value="Ni" style="ellipse;whiteSpace=wrap;html=1;rounded=0;shadow=1;comic=0;labelBackgroundColor=none;strokeWidth=1;fontFamily=Verdana;fontSize=12;align=center;" parent="1" vertex="1">
          <mxGeometry x="450" y="80" width="90" height="60" as="geometry" />
        </mxCell>
        <mxCell id="GMt-ye5gc53pS2L6aItx-6" style="edgeStyle=orthogonalEdgeStyle;rounded=0;orthogonalLoop=1;jettySize=auto;html=1;entryX=0.5;entryY=0;entryDx=0;entryDy=0;" edge="1" parent="1" source="GMt-ye5gc53pS2L6aItx-3" target="GMt-ye5gc53pS2L6aItx-8">
          <mxGeometry relative="1" as="geometry">
            <mxPoint x="270" y="240" as="targetPoint" />
          </mxGeometry>
        </mxCell>
        <mxCell id="GMt-ye5gc53pS2L6aItx-7" value="false" style="edgeLabel;html=1;align=center;verticalAlign=middle;resizable=0;points=[];" vertex="1" connectable="0" parent="GMt-ye5gc53pS2L6aItx-6">
          <mxGeometry x="0.2852" y="2" relative="1" as="geometry">
            <mxPoint x="53" y="-30" as="offset" />
          </mxGeometry>
        </mxCell>
        <mxCell id="GMt-ye5gc53pS2L6aItx-15" style="edgeStyle=orthogonalEdgeStyle;rounded=0;orthogonalLoop=1;jettySize=auto;html=1;entryX=0.5;entryY=0;entryDx=0;entryDy=0;" edge="1" parent="1" source="GMt-ye5gc53pS2L6aItx-3" target="GMt-ye5gc53pS2L6aItx-10">
          <mxGeometry relative="1" as="geometry" />
        </mxCell>
        <mxCell id="GMt-ye5gc53pS2L6aItx-16" value="true" style="edgeLabel;html=1;align=center;verticalAlign=middle;resizable=0;points=[];" vertex="1" connectable="0" parent="GMt-ye5gc53pS2L6aItx-15">
          <mxGeometry x="-0.0545" relative="1" as="geometry">
            <mxPoint as="offset" />
          </mxGeometry>
        </mxCell>
        <mxCell id="GMt-ye5gc53pS2L6aItx-3" value="N1" style="ellipse;whiteSpace=wrap;html=1;rounded=0;shadow=1;comic=0;labelBackgroundColor=none;strokeWidth=1;fontFamily=Verdana;fontSize=12;align=center;" vertex="1" parent="1">
          <mxGeometry x="450" y="210" width="90" height="60" as="geometry" />
        </mxCell>
        <mxCell id="GMt-ye5gc53pS2L6aItx-20" style="edgeStyle=orthogonalEdgeStyle;rounded=0;orthogonalLoop=1;jettySize=auto;html=1;entryX=0;entryY=0.5;entryDx=0;entryDy=0;" edge="1" parent="1" source="GMt-ye5gc53pS2L6aItx-8" target="GMt-ye5gc53pS2L6aItx-18">
          <mxGeometry relative="1" as="geometry" />
        </mxCell>
        <mxCell id="GMt-ye5gc53pS2L6aItx-8" value="N7" style="ellipse;whiteSpace=wrap;html=1;rounded=0;shadow=1;comic=0;labelBackgroundColor=none;strokeWidth=1;fontFamily=Verdana;fontSize=12;align=center;" vertex="1" parent="1">
          <mxGeometry x="290" y="350" width="90" height="60" as="geometry" />
        </mxCell>
        <mxCell id="GMt-ye5gc53pS2L6aItx-19" style="edgeStyle=orthogonalEdgeStyle;rounded=0;orthogonalLoop=1;jettySize=auto;html=1;entryX=1;entryY=0.5;entryDx=0;entryDy=0;" edge="1" parent="1" source="GMt-ye5gc53pS2L6aItx-10" target="GMt-ye5gc53pS2L6aItx-18">
          <mxGeometry relative="1" as="geometry" />
        </mxCell>
        <mxCell id="GMt-ye5gc53pS2L6aItx-10" value="N2, N3, N4, N5, N6" style="ellipse;whiteSpace=wrap;html=1;rounded=0;shadow=1;comic=0;labelBackgroundColor=none;strokeWidth=1;fontFamily=Verdana;fontSize=12;align=center;" vertex="1" parent="1">
          <mxGeometry x="450" y="350" width="90" height="60" as="geometry" />
        </mxCell>
        <mxCell id="GMt-ye5gc53pS2L6aItx-18" value="Nf" style="ellipse;whiteSpace=wrap;html=1;rounded=0;shadow=1;comic=0;labelBackgroundColor=none;strokeWidth=1;fontFamily=Verdana;fontSize=12;align=center;" vertex="1" parent="1">
          <mxGeometry x="370" y="460" width="90" height="60" as="geometry" />
        </mxCell>
      </root>
    </mxGraphModel>
  </diagram>
</mxfile>
